HIERARCHY
ROOT SpineBase
{
  OFFSET 0.000000 0.000000 0.000000
  CHANNELS 6 Xposition Yposition Zposition Zrotation Xrotation Yrotation
  JOINT SpineMid
  {
    OFFSET 0.000000 31.774036 0.000000
    CHANNELS 3 Zrotation Xrotation Yrotation
    JOINT SpineShoulder
    {
      OFFSET 0.240641 23.399795 -0.459645
      CHANNELS 3 Zrotation Xrotation Yrotation
      JOINT Neck
      {
        OFFSET 0.113477 7.722775 -0.449981
        CHANNELS 3 Zrotation Xrotation Yrotation
        JOINT Head
        {
          OFFSET 5.000435 11.793380 6.500100
          CHANNELS 3 Zrotation Xrotation Yrotation
          End Site
          {
            OFFSET 0 0 0
          }
        }
      }
      JOINT ShoulderLeft
      {
        OFFSET -11.072886 -2.777847 -12.388739
        CHANNELS 3 Zrotation Xrotation Yrotation
        JOINT ElbowLeft
        {
          OFFSET -6.384137 -26.662589 -6.541627
          CHANNELS 3 Zrotation Xrotation Yrotation
          JOINT WristLeft
          {
            OFFSET 2.316454 -20.628147 -4.069415
            CHANNELS 3 Zrotation Xrotation Yrotation
            JOINT HandLeft
            {
              OFFSET 0.080356 -5.135224 0.565266
              CHANNELS 3 Zrotation Xrotation Yrotation
              JOINT HandTipLeft
              {
                OFFSET 1.674293 -8.491082 -0.777072
                CHANNELS 3 Zrotation Xrotation Yrotation
                End Site
                {
                  OFFSET 0 0 0
                }
              }
              JOINT ThumbLeft
              {
                OFFSET 3.401124 2.121858 -0.633317
                CHANNELS 3 Zrotation Xrotation Yrotation
                End Site
                {
                  OFFSET 0 0 0
                }
              }
            }
          }
        }
      }
      JOINT ShoulderRight
      {
        OFFSET 11.085876 -5.094695 11.413122
        CHANNELS 3 Zrotation Xrotation Yrotation
        JOINT ElbowRight
        {
          OFFSET 3.111831 -26.842310 4.694438
          CHANNELS 3 Zrotation Xrotation Yrotation
          JOINT WristRight
          {
            OFFSET -0.533198 -27.509839 1.491490
            CHANNELS 3 Zrotation Xrotation Yrotation
            JOINT HandRight
            {
              OFFSET -1.954239 -9.086331 1.757848
              CHANNELS 3 Zrotation Xrotation Yrotation
              JOINT HandTipRight
              {
                OFFSET -1.109259 -5.846171 0.032627
                CHANNELS 3 Zrotation Xrotation Yrotation
                End Site
                {
                  OFFSET 0 0 0
                }
              }
              JOINT ThumbRight
              {
                OFFSET -2.154787 -0.784060 1.152156
                CHANNELS 3 Zrotation Xrotation Yrotation
                End Site
                {
                  OFFSET 0 0 0
                }
              }
            }
          }
        }
      }
    }
  }
  JOINT HipLeft
  {
    OFFSET -4.967193 1.406521 -8.244695
    CHANNELS 3 Zrotation Xrotation Yrotation
    JOINT KneeLeft
    {
      OFFSET -10.744337 -35.475986 -9.680545
      CHANNELS 3 Zrotation Xrotation Yrotation
      JOINT AnkleLeft
      {
        OFFSET -15.340213 -35.099123 7.323420
        CHANNELS 3 Zrotation Xrotation Yrotation
        JOINT FootLeft
        {
          OFFSET 9.096948 -3.819121 -11.106843
          CHANNELS 3 Zrotation Xrotation Yrotation
          End Site
          {
            OFFSET 0 0 0
          }
        }
      }
    }
  }
  JOINT HipRight
  {
    OFFSET 5.309392 0.023200 1.087156
    CHANNELS 3 Zrotation Xrotation Yrotation
    JOINT KneeRight
    {
      OFFSET -7.874872 -35.078189 4.177322
      CHANNELS 3 Zrotation Xrotation Yrotation
      JOINT AnkleRight
      {
        OFFSET -13.918529 -37.015421 7.798771
        CHANNELS 3 Zrotation Xrotation Yrotation
        JOINT FootRight
        {
          OFFSET 0.792636 -8.381378 -4.814149
          CHANNELS 3 Zrotation Xrotation Yrotation
          End Site
          {
            OFFSET 0 0 0
          }
        }
      }
    }
  }
}
MOTION
Frames: 9
Frame Time: 0.033333
-25.960318 82.279690 334.162259 0.786521 0.464348 -29.021903 1.107705 0.209381 29.058810 0.115144 0.491516 0.062403 -3.457398 -5.072411 2.565182 0.000000 0.000000 0.000000 42.047708 42.894742 -38.873120 104.432812 14.440009 44.524169 13.069057 -30.193103 113.311064 -4.230542 -10.505358 -44.370790 0.000000 0.000000 0.000000 0.000000 0.000000 0.000000 -120.081436 62.844633 97.049621 158.436188 -40.580963 128.244436 -2.217054 49.506355 -9.657408 29.212427 -38.628524 26.483204 0.000000 0.000000 0.000000 0.000000 0.000000 0.000000 7.299612 -11.202896 33.420495 9.530323 10.699931 -2.746869 -42.385390 -33.637762 11.078111 0.000000 0.000000 0.000000 6.298651 -1.110550 30.626331 0.032586 -4.897653 3.197549 15.455524 27.908516 -17.856928 0.000000 0.000000 0.000000
-25.980759 82.376249 334.035847 1.007122 0.729571 -28.677390 1.120075 0.451410 28.712753 0.122184 0.486518 0.073411 -5.782891 -5.889102 3.629961 0.000000 0.000000 0.000000 41.855140 43.282575 -39.216631 104.596683 14.862293 45.599982 10.401551 -35.746035 115.499271 -0.010167 -14.167259 -49.974083 0.000000 0.000000 0.000000 0.000000 0.000000 0.000000 -120.298699 62.476244 95.965100 157.812566 -39.970081 126.891407 -2.908493 48.219423 -9.030537 28.563783 -37.556944 25.317035 0.000000 0.000000 0.000000 0.000000 0.000000 0.000000 7.229062 -11.625531 33.135907 9.554268 10.550836 -2.651960 -42.610180 -33.689721 11.362695 0.000000 0.000000 0.000000 6.228000 -1.506393 30.323032 0.047257 -5.006460 3.248865 16.860097 30.089118 -18.944525 0.000000 0.000000 0.000000
-25.988205 82.227818 334.101236 1.213012 0.718700 -28.201371 1.030258 0.850483 28.231034 0.027980 0.436740 0.078949 -7.965784 -6.514991 4.629808 0.000000 0.000000 0.000000 42.139863 43.499665 -39.718455 104.791459 15.186090 46.726752 11.458868 -48.159935 128.436587 7.761776 -21.600268 -63.842726 0.000000 0.000000 0.000000 0.000000 0.000000 0.000000 -120.815908 62.132753 95.560341 157.313044 -39.193239 125.878551 -4.067362 47.378493 -8.378541 29.624057 -36.354847 25.137624 0.000000 0.000000 0.000000 0.000000 0.000000 0.000000 6.734027 -11.547879 32.546139 9.573100 10.181818 -2.480697 -42.638321 -33.835011 12.108439 0.000000 0.000000 0.000000 5.880759 -1.534503 29.798865 0.047181 -5.487124 3.416738 20.121543 33.609398 -21.510218 0.000000 0.000000 0.000000
-25.997244 82.558087 333.741367 1.455878 1.345279 -28.466491 1.128436 0.680514 28.497405 0.050947 0.452444 0.086819 -9.945286 -7.187752 5.432247 0.000000 0.000000 0.000000 41.907980 44.324484 -40.229265 107.559044 15.627968 49.812870 6.850907 -59.794085 134.767500 14.425729 -31.890754 -75.137957 0.000000 0.000000 0.000000 0.000000 0.000000 0.000000 -121.292146 61.802654 94.983657 156.500211 -38.871091 124.586883 -4.647057 45.450953 -7.686936 28.943939 -34.753664 23.616123 0.000000 0.000000 0.000000 0.000000 0.000000 0.000000 7.488829 -12.577913 33.114776 9.408449 10.678415 -2.612485 -43.118312 -34.132227 11.987523 0.000000 0.000000 0.000000 6.124130 -2.268460 30.184068 -0.026996 -5.220791 3.322341 24.770597 37.187718 -25.168958 0.000000 0.000000 0.000000
-25.992260 82.837005 333.315266 1.729589 2.073464 -28.285878 1.184521 0.442774 28.314307 0.151578 0.505571 0.097097 -11.585601 -8.008814 6.018817 0.000000 0.000000 0.000000 40.942341 44.956242 -40.109237 111.965107 15.808619 53.691856 -4.005497 -71.030923 135.720257 20.522296 -45.415104 -87.168105 0.000000 0.000000 0.000000 0.000000 0.000000 0.000000 -121.577871 61.552791 94.155827 155.478809 -38.760292 123.146387 -4.852112 43.473118 -7.207616 28.037931 -33.122990 22.047121 0.000000 0.000000 0.000000 0.000000 0.000000 0.000000 7.927065 -13.801342 33.264362 9.536519 11.043577 -2.778945 -43.734193 -34.379779 11.448371 0.000000 0.000000 0.000000 6.381373 -3.220749 30.153856 -0.049827 -5.041096 3.282238 33.235964 41.864034 -32.223959 0.000000 0.000000 0.000000
-25.967619 83.031040 332.877469 1.962337 2.783472 -27.848001 1.149650 0.085480 27.868467 0.248403 0.552752 0.102214 -12.270493 -8.353153 6.120525 0.000000 0.000000 0.000000 41.024403 45.702290 -40.703468 115.537942 16.342476 57.802971 -20.865419 -70.422015 122.060345 23.920244 -49.188905 -88.464241 0.000000 0.000000 0.000000 0.000000 0.000000 0.000000 -121.623127 61.338020 93.356831 154.398670 -38.660604 121.730381 -4.344729 41.763679 -7.130993 26.952486 -32.574299 21.136093 0.000000 0.000000 0.000000 0.000000 0.000000 0.000000 8.137844 -14.982934 33.119873 9.771388 11.302626 -2.950818 -44.387358 -34.625840 10.577644 0.000000 0.000000 0.000000 6.606979 -4.149245 29.853749 -0.103935 -5.023297 3.295472 33.432194 41.970789 -32.453181 0.000000 0.000000 0.000000
-25.938183 83.144572 332.449600 2.177011 3.471592 -27.144315 1.087085 -0.211481 27.150937 0.363450 0.623819 0.107979 -12.824744 -8.853096 6.170587 0.000000 0.000000 0.000000 41.386639 46.113231 -41.324209 118.146530 16.922911 61.354133 -30.200936 -65.873247 112.834604 28.734600 -47.554047 -85.073089 0.000000 0.000000 0.000000 0.000000 0.000000 0.000000 -121.589162 61.211725 92.543446 153.387540 -38.606004 120.474666 -2.581647 39.221949 -7.174596 24.558860 -33.185724 20.176227 0.000000 0.000000 0.000000 0.000000 0.000000 0.000000 8.092169 -16.096139 32.642647 10.092577 11.394256 -3.080417 -44.663178 -34.478784 9.896103 0.000000 0.000000 0.000000 6.797300 -5.124961 29.294731 -0.103252 -5.071846 3.350805 27.916919 39.236331 -27.991122 0.000000 0.000000 0.000000
-25.897995 83.188235 332.070255 2.378242 4.045036 -26.332823 1.019615 -0.456245 26.323821 0.465307 0.659016 0.115515 -13.542544 -9.174584 6.272772 0.000000 0.000000 0.000000 42.203822 45.791623 -41.855254 119.153189 17.161461 63.631735 -33.268659 -57.690925 105.711904 32.616239 -39.482903 -77.494175 0.000000 0.000000 0.000000 0.000000 0.000000 0.000000 -121.274374 61.157921 91.542899 152.601949 -38.462300 119.429169 -1.487011 37.734407 -7.200000 22.316010 -32.756358 18.819982 0.000000 0.000000 0.000000 0.000000 0.000000 0.000000 7.829573 -17.033252 31.977405 10.432940 11.406304 -3.192646 -44.564438 -34.035018 9.390876 0.000000 0.000000 0.000000 6.887911 -6.027607 28.612056 -0.053171 -5.123545 3.414119 22.555120 35.926098 -23.789414 0.000000 0.000000 0.000000
-25.857092 83.149235 331.773219 2.594875 4.499768 -25.497360 0.965372 -0.525908 25.471821 0.559053 0.686029 0.126946 -14.376331 -9.574352 6.378533 0.000000 0.000000 0.000000 42.591216 46.163675 -42.564079 120.855575 17.710334 66.705517 -34.851753 -54.316168 103.772579 27.297056 -37.559357 -74.008001 0.000000 0.000000 0.000000 0.000000 0.000000 0.000000 -120.819509 61.192877 90.361002 151.959635 -38.234672 118.538900 -1.081827 37.105755 -7.244717 21.307346 -32.921745 18.454110 0.000000 0.000000 0.000000 0.000000 0.000000 0.000000 7.386080 -17.769481 31.202057 10.728770 11.276551 -3.231023 -44.454606 -33.637307 8.996386 0.000000 0.000000 0.000000 6.852505 -6.839049 27.880770 0.024792 -5.166120 3.472895 15.154223 30.383901 -18.164194 0.000000 0.000000 0.000000
